<?xml version="1.0" encoding="UTF-8" standalone="no"?><!DOCTYPE svg PUBLIC "-//W3C//DTD SVG 1.1//EN" "http://www.w3.org/Graphics/SVG/1.1/DTD/svg11.dtd"><svg width="100%" height="100%" viewBox="0 0 360 146" version="1.1" xmlns="http://www.w3.org/2000/svg" xmlns:xlink="http://www.w3.org/1999/xlink" xml:space="preserve" xmlns:serif="http://www.serif.com/" style="fill-rule:evenodd;clip-rule:evenodd;stroke-linejoin:round;stroke-miterlimit:1.41421;"><g><path d="M1.099,73.296c11.376,13.104 25.344,19.008 35.856,19.008c8.64,0 15.696,-3.024 19.44,-7.344c3.744,-4.464 5.616,-8.208 5.616,-11.52c0,-2.736 -1.584,-5.328 -4.32,-7.344c-5.616,-4.032 -25.344,-12.24 -24.912,-21.744c0.72,-16.56 32.256,-37.728 37.584,-33.84c2.016,1.44 -1.872,7.776 -5.472,13.104c-4.752,6.336 -6.624,11.808 -6.624,14.976c0,3.312 1.44,5.76 3.456,7.776c2.736,2.88 4.32,1.728 5.616,-0.576c2.016,-3.456 6.192,-10.944 9.648,-15.552c2.16,-3.168 5.76,-8.928 4.32,-14.832c-1.008,-3.888 -3.6,-8.64 -7.632,-12.384c-2.448,-2.016 -5.328,-3.024 -8.784,-3.024c-3.312,0 -6.336,0.432 -11.088,2.448c-12.96,5.472 -35.424,22.608 -35.424,42.192c0,14.688 20.016,22.464 30.384,30.528c1.584,1.296 2.304,3.888 0.144,6.048c-1.584,1.584 -4.464,2.304 -7.632,2.304c-8.352,0 -17.856,-7.2 -23.472,-11.808c-3.024,-2.448 -7.056,-3.6 -11.232,-3.6c-1.728,0 -3.312,0.144 -4.464,0.432c-2.016,0.72 -3.024,2.304 -1.008,4.752Z" style="fill:#fff;fill-rule:nonzero;"/><path d="M131.419,76.32c2.16,-4.176 1.584,-8.352 1.008,-9.648c-1.152,-2.736 -3.6,-2.304 -5.04,0.144c-5.184,9.072 -12.528,19.008 -17.28,19.008c-1.872,0 -2.736,-1.44 -2.736,-4.032c0,-5.616 5.616,-15.408 9.792,-22.176c5.04,-8.352 8.064,-14.688 8.064,-19.584c0,-3.168 -0.72,-5.472 -2.16,-7.488c-1.728,-2.448 -4.032,-1.872 -6.048,0.864c-5.184,6.624 -8.928,16.416 -17.424,30.24c-7.344,11.52 -14.976,21.312 -18.72,21.312c-3.168,0 -2.736,-5.328 -0.144,-11.088c5.04,-11.088 15.552,-27.792 15.552,-33.696c0,-2.16 -0.576,-4.608 -2.16,-6.624c-1.728,-2.16 -4.32,-2.448 -6.192,0c-8.928,12.528 -16.272,26.928 -19.44,36c-1.296,3.456 -1.872,6.768 -1.872,9.936c0,6.192 2.88,11.664 10.224,11.664c7.344,0 13.824,-4.464 18.72,-9.936c0.576,6.48 4.896,10.656 13.392,10.656c8.928,0 18.288,-7.344 22.464,-15.552Z" style="fill:#fff;fill-rule:nonzero;"/><path d="M176.635,12.096c0,-3.744 -1.584,-7.776 -4.752,-10.512c-2.736,-2.592 -5.328,-1.728 -8.064,1.008c-14.112,14.832 -30.384,41.472 -36,65.376c-0.72,2.88 -1.008,5.76 -1.008,8.208c0,9.936 5.472,14.976 14.256,14.976c12.096,0 22.752,-11.808 24.912,-16.128c1.872,-3.888 2.016,-7.2 1.44,-9.36c-1.008,-3.744 -4.176,-3.744 -6.048,-0.144c-5.472,10.368 -13.824,20.016 -20.448,20.016c-1.872,0 -2.736,-2.448 -2.736,-5.904c0,-5.04 1.872,-11.52 4.752,-18.864c12.672,-8.496 28.368,-25.488 32.832,-42.624c0.72,-2.448 0.864,-4.032 0.864,-6.048Zm-8.064,3.6c0.864,0.576 -1.008,6.912 -5.904,15.12c-3.312,5.616 -8.208,12.24 -14.4,18.288c1.008,-2.448 7.344,-13.248 11.088,-19.584c4.896,-8.496 8.64,-14.112 9.216,-13.824Z" style="fill:#fff;fill-rule:nonzero;"/><path d="M209.755,12.096c0,-3.744 -1.584,-7.776 -4.752,-10.512c-2.736,-2.592 -5.328,-1.728 -8.064,1.008c-14.112,14.832 -30.384,41.472 -36,65.376c-0.72,2.88 -1.008,5.76 -1.008,8.208c0,9.936 5.472,14.976 14.256,14.976c12.096,0 22.752,-11.808 24.912,-16.128c1.872,-3.888 2.016,-7.2 1.44,-9.36c-1.008,-3.744 -4.176,-3.744 -6.048,-0.144c-5.472,10.368 -13.824,20.016 -20.448,20.016c-1.872,0 -2.736,-2.448 -2.736,-5.904c0,-5.04 1.872,-11.52 4.752,-18.864c12.672,-8.496 28.368,-25.488 32.832,-42.624c0.72,-2.448 0.864,-4.032 0.864,-6.048Zm-8.064,3.6c0.864,0.576 -1.008,6.912 -5.904,15.12c-3.312,5.616 -8.208,12.24 -14.4,18.288c1.008,-2.448 7.344,-13.248 11.088,-19.584c4.896,-8.496 8.64,-14.112 9.216,-13.824Z" style="fill:#fff;fill-rule:nonzero;"/><path d="M251.659,65.376c-0.576,-1.872 -2.736,-1.584 -4.608,1.008c-4.608,6.48 -12.096,13.824 -20.88,19.152c5.904,-13.68 13.392,-27.648 17.568,-35.712c1.872,-3.6 2.592,-6.768 2.592,-9.648c0,-3.024 -0.576,-5.184 -2.736,-7.344c-1.584,-1.584 -3.456,-1.296 -5.472,1.296c-3.456,5.184 -7.344,13.968 -16.992,30.24c-7.056,11.952 -13.536,20.448 -17.28,20.448c-3.744,0 -2.448,-5.76 -0.432,-10.944c2.736,-6.768 5.76,-12.672 10.656,-20.448c3.312,-5.328 5.04,-9.504 5.04,-13.104c0,-2.304 -1.296,-4.896 -2.736,-6.912c-1.584,-2.304 -3.744,-2.16 -5.616,0.288c-8.928,12.24 -15.984,26.784 -19.296,35.856c-1.296,3.6 -1.872,7.056 -1.872,10.08c0,6.048 3.168,11.52 10.368,11.52c4.32,0 8.064,-1.296 11.808,-4.032l-2.16,5.04c-13.968,5.616 -25.632,14.4 -30.096,26.784c-0.864,2.592 -1.296,5.04 -1.296,6.768c0,4.608 2.16,8.928 4.32,11.952c3.456,4.608 6.48,4.608 9.792,3.312c12.528,-4.752 22.32,-27.792 30.24,-46.8c11.808,-4.896 21.312,-10.224 27.072,-19.008c2.448,-3.744 2.736,-7.488 2.016,-9.792Zm-45.792,36.144c-3.456,7.776 -6.912,14.832 -9.936,20.16c-4.032,7.056 -7.056,11.232 -8.064,10.368c-1.44,-1.296 -0.432,-7.2 3.168,-13.968c3.024,-5.616 7.92,-11.808 14.832,-16.56Z" style="fill:#fff;fill-rule:nonzero;"/><path d="M257.995,91.728c3.456,1.296 8.208,-1.296 9.936,-5.616c1.728,-4.176 0.576,-8.352 -2.88,-9.504c-3.6,-1.296 -8.064,1.008 -10.08,5.472c-1.728,3.6 -0.432,8.352 3.024,9.648Z" style="fill:#fff;fill-rule:nonzero;"/><path d="M318.475,22.608c-2.16,-4.896 -7.488,-6.768 -10.512,-3.312c-1.584,1.584 -2.448,3.6 -2.448,5.904c0,1.584 0.432,3.456 1.44,5.184c2.592,4.752 7.92,5.04 10.368,2.16c1.296,-1.44 2.304,-3.456 2.304,-5.616c0,-1.296 -0.288,-2.88 -1.152,-4.464l0,0.144Zm-11.808,27.648c1.728,-3.456 2.304,-6.768 2.304,-9.504c0,-2.88 -0.72,-5.184 -2.16,-6.768c-2.016,-2.016 -3.888,-1.872 -5.76,1.008c-7.632,11.808 -20.448,37.872 -29.664,60.336c-14.112,5.472 -26.496,14.4 -30.672,26.928c-0.864,2.592 -1.296,4.752 -1.296,6.336c0,4.752 2.592,10.08 4.608,13.104c3.168,4.32 6.768,4.464 9.936,3.168c11.52,-5.184 22.32,-28.8 30.24,-47.232c12.528,-5.472 24.048,-12.24 29.376,-21.888c2.16,-3.888 2.592,-7.488 2.16,-8.928c-1.008,-3.168 -3.456,-2.736 -5.04,-0.288c-5.328,7.776 -12.24,15.84 -22.608,22.032c3.312,-7.344 7.488,-15.696 11.232,-23.184c3.168,-6.192 5.76,-11.664 7.344,-15.12Zm-38.016,52.992c-3.744,7.056 -7.056,13.536 -9.936,18.72c-5.616,10.08 -9.504,15.84 -10.8,14.112c-1.584,-2.016 0.288,-9.36 5.616,-17.424c3.456,-5.328 8.496,-10.944 15.12,-15.408Z" style="fill:#fff;fill-rule:nonzero;"/><path d="M326.395,84.816c-3.168,0 -6.192,-5.04 -7.92,-11.808c4.32,-6.192 8.352,-12.384 11.808,-17.856c0.288,3.888 0.432,8.496 0.432,13.104c0,9.36 -1.296,16.56 -4.32,16.56Zm-19.728,-13.824c0,3.312 0.864,6.768 2.448,9.504c4.896,9.072 13.536,11.376 22.176,11.088c10.8,-0.432 20.88,-5.904 26.352,-15.984c2.592,-4.464 2.16,-8.496 1.44,-9.936c-1.008,-2.304 -3.168,-3.312 -4.464,0c-2.592,7.056 -6.624,11.808 -12.528,15.84c1.584,-3.168 2.304,-7.2 2.448,-10.8c0.288,-7.776 -1.584,-17.136 -1.584,-27.36c0,-1.872 0.144,-4.32 0.288,-6.048c4.464,-7.344 3.6,-10.512 -0.288,-10.512c-2.16,0 -4.752,1.008 -7.056,3.024c-3.312,2.736 -5.04,6.048 -5.616,11.232c-3.744,6.192 -8.784,13.68 -13.536,20.448c-0.432,-3.456 -2.592,-4.176 -5.472,-1.728c-3.168,2.736 -4.608,6.912 -4.608,11.232Z" style="fill:#fff;fill-rule:nonzero;"/></g></svg>